# xmcd
# Copyright (C) 1995-1998 Ti Kan
#
# Track frame offsets:
#       150
#       903
#       1354
#       1806
#       2595
#       3083
#       3473
#       4131
#       5478
#       6152
#       6861
#       7304
#       8013
#       17235
#       18591
#       21780
#       23206
#       26508
#       30902
#       31354
#       32107
#
# Disc length: 438 seconds
#
# Revision: 0
# Processed by: cddbd v1.5.2PL0 Copyright (c) Steve Scherf et al.
# Submitted via: CD-Import v1.0
#
DISCID=c701b415
DTITLE=Active Beats - Jingles Rabe Und Stadtfilter
DYEAR=1900
DGENRE=
TTITLE0=Voxf Gsn Ab Laut Delay
TTITLE1=Voxf Gsn Ab Laut Natura
TTITLE2=Voxf Gsn Ab Whisper Natura
TTITLE3=Voxf Gsn Ab Whisper Revdel
TTITLE4=Voxf Gsn Laut Delay
TTITLE5=Voxm Ab Locut Delay
TTITLE6=Voxm Ab Norm Delay
TTITLE7=Voxmf Radio Stadtfilter Rabe
TTITLE8=Voxm Gsn Ab Locut Delay
TTITLE9=Voxm Gsn Ab Norm Delay
TTITLE10=Voxm Gsn Locut Delay
TTITLE11=Voxm Gsn Nrom Delay
TTITLE12=Intro 2010 Stadf Rabe
TTITLE13=Standalone Gsn Ab 1-2
TTITLE14=Standalone Gsn Ab 2-2
TTITLE15=Standalone Gsn Ab 3-1
TTITLE16=Standalone Mhz Stream Stadf Rabe
TTITLE17=Standalone Stream Stadf Rabe
TTITLE18=Voxf Ab Laut Delay
TTITLE19=Voxf Ab Whisp Delay
TTITLE20=Voxf Sn Whisp Delay
EXTD=
EXTT0=
EXTT1=
EXTT2=
EXTT3=
EXTT4=
EXTT5=
EXTT6=
EXTT7=
EXTT8=
EXTT9=
EXTT10=
EXTT11=
EXTT12=
EXTT13=
EXTT14=
EXTT15=
EXTT16=
EXTT17=
EXTT18=
EXTT19=
EXTT20=
PLAYORDER=
